# xmcd
# 
# Track frame offsets:
#     150
#     19120
#     35290
#     47067
#     58005
#     66865
#     78712
#     92060
#     104425
#     120102
#     130117
#     141732
#     155275
#     167557
#     178807
#     190862
# 
# Disc length: 2680
# 
# Revision: 11
# Processed by: cddbd v1.5.2PL0 Copyright (c) Steve Scherf et al.
# Submitted via: fre:ac v1.0.27
# 
DISCID=d80a7610
DTITLE=Various Artist - Country and Western CD1
DYEAR=1998
DGENRE=Country
TTITLE0=John Denver - Rocky Mountain High
TTITLE1=Bobby Bare - Me And Bobby McGee
TTITLE2=Dave Dudley - Six Days On The Road
TTITLE3=Dolly Parton - (It Wasn't God Who Made) Honky Tonk Angels
TTITLE4=Bob Luman - Let's Think About Living
TTITLE5=Ferlin Husky - Money Greases The Wheels
TTITLE6=George Kent - Mama Bake A Pie, Daddy Kill A Chicken
TTITLE7=Johnny Cash - I Walk The Line
TTITLE8=Karen O'Donnell - I Know What It´s All About Now, Mama
TTITLE9=Kitty Wells - I Can't Stop Loving You
TTITLE10=Patsy Kline - Walking After Midnight
TTITLE11=Ray Price - Heartaches By The Number
TTITLE12=Rick Key - Rodeo Drifter
TTITLE13=Roger Miller - King Of The Road
TTITLE14=Ronnie Rogers - It´s Good To Know She´s There
TTITLE15=Johnny Russell - Jambalaya
EXTD=
EXTT0=
EXTT1=
EXTT2=
EXTT3=
EXTT4=
EXTT5=
EXTT6=
EXTT7=
EXTT8=
EXTT9=
EXTT10=
EXTT11=
EXTT12=
EXTT13=
EXTT14=
EXTT15=
PLAYORDER=
